Coordinates
version=1
nRows=6
nColumns=36
inDegrees=yes

Units are S.I. units (second, meters, Newtons, ...)
If the header above contains a line with 'inDegrees', this indicates whether rotational values are in degrees (yes) or radians (no).

endheader
time	pelvis_tilt	pelvis_list	pelvis_rotation	pelvis_tx	pelvis_ty	pelvis_tz	hip_flexion_r	hip_adduction_r	hip_rotation_r	knee_angle_r	knee_angle_r_beta	ankle_angle_r	subtalar_angle_r	mtp_angle_r	hip_flexion_l	hip_adduction_l	hip_rotation_l	knee_angle_l	knee_angle_l_beta	ankle_angle_l	subtalar_angle_l	mtp_angle_l	lumbar_extension	lumbar_bending	lumbar_rotation	arm_flex_r	arm_add_r	arm_rot_r	elbow_flex_r	pro_sup_r	arm_flex_l	arm_add_l	arm_rot_l	elbow_flex_l	pro_sup_l
      2.32083330	    -29.13721798	      2.41153410	     -2.01777114	      0.04873087	      0.71393148	     -0.10263461	     82.41142429	     -5.56358662	      9.13769146	     85.26742562	      1.48819732	     35.13904070	     -9.02433931	     -7.49999987	     84.78263497	     -5.11205613	      4.16477202	     84.54503625	      1.47558925	     32.12990475	     -6.23361583	     -7.49999987	    -27.74901572	     -1.75605522	      4.54337219	     62.52277490	    -33.34412442	     33.15947534	     99.16451332	    101.85851204	     66.65183631	    -25.15364298	     35.86730753	    103.95774684	    101.80423399
      2.32500000	    -28.90832327	      2.42515651	     -1.98640648	      0.05085594	      0.71659269	     -0.10308273	     81.85261888	     -5.49659157	      9.18072280	     84.90003602	      1.48178516	     34.83800383	     -9.58827714	     -7.49999987	     84.14288368	     -5.16941254	      3.95909861	     84.07920224	      1.46745891	     31.95128923	     -6.45619986	     -7.49999987	    -27.81590802	     -1.77648127	      4.59335883	     62.17508230	    -33.24264498	     32.74685944	     99.00734902	    104.44387128	     66.87581940	    -24.64702011	     36.09384486	    103.03878227	    104.08066905
      2.32916670	    -28.63637746	      2.50040380	     -1.97026293	      0.05178568	      0.71866183	     -0.10397634	     81.31133143	     -5.51668956	      9.25011407	     84.56228872	      1.47589036	     34.67076986	     -9.95183824	     -7.49999987	     83.54185179	     -5.19486191	      3.64465504	     83.75908552	      1.46187182	     31.90744832	     -6.44516710	     -7.49999987	    -27.92945160	     -1.78043391	      4.49975543	     62.14062467	    -33.13855169	     32.91795675	     98.64809715	    104.51882659	     66.95022743	    -24.29342441	     36.23288739	    102.38527497	    103.89558536
      2.33333330	    -28.53110343	      2.53966986	     -1.89574561	      0.05599861	      0.72089637	     -0.10082474	     80.78182392	     -5.42972787	      9.32259347	     84.32116288	      1.47168192	     34.66614760	     -9.83635409	     -7.49999987	     82.83949533	     -5.35960340	      3.52733286	     83.21121538	      1.45230968	     32.20877709	     -5.75350857	     -7.49999987	    -27.79797756	     -1.84641163	      4.26640772	     61.70252830	    -32.74029947	     32.89512447	     98.16125591	    103.58905554	     66.89222702	    -24.06962050	     36.40413529	    101.68677775	    102.97316031
      2.33750000	    -28.33870402	      2.58935136	     -1.88500231	      0.05569633	      0.72357433	     -0.10121810	     80.29035485	     -5.34234822	      9.43058265	     84.07203490	      1.46733382	     34.53919933	     -9.77623771	     -7.49999987	     82.22348185	     -5.51083334	      3.30778772	     82.80259477	      1.44517791	     32.45237867	     -5.06706610	     -7.49999987	    -27.80262176	     -1.97641807	      4.07737044	     61.34432054	    -32.38063648	     32.97789662	     97.77067209	    101.62752089	     67.00019602	    -23.92750158	     36.73470998	    101.01780213	    101.02703707
      2.34166670	    -28.05304737	      2.55913660	     -1.88096580	      0.05873776	      0.72512612	     -0.10130739	     79.64011263	     -5.30127456	      9.47842946	     83.84784949	      1.46342104	     34.53714591	     -9.56488133	     -7.49999987	     81.52767704	     -5.65172624	      3.26934607	     82.51266469	      1.44011767	     32.62786051	     -4.43051595	     -7.49999987	    -27.92914965	     -2.14915298	      4.15929773	     60.42346724	    -32.11218308	     31.86141104	     97.73241436	    104.76905021	     67.32912664	    -23.45917174	     37.12830870	    100.09663590	    103.83627286
